<?xml version="1.0" standalone="no"?>
<!DOCTYPE svg PUBLIC "-//W3C//DTD SVG 20010904//EN"
 "http://www.w3.org/TR/2001/REC-SVG-20010904/DTD/svg10.dtd">
<svg version="1.0" xmlns="http://www.w3.org/2000/svg"
 width="160.000000pt" height="160.000000pt" viewBox="0 0 160.000000 160.000000"
 preserveAspectRatio="xMidYMid meet">
<metadata>
Created by potrace 1.14, written by Peter Selinger 2001-2017
</metadata>
<g transform="translate(0.000000,160.000000) scale(0.100000,-0.100000)"
fill="#000000" stroke="none">
<path d="M859 1474 c-6 -16 -14 -56 -17 -89 -7 -56 -9 -60 -34 -63 -22 -3 -30
3 -44 30 -9 18 -35 57 -58 87 l-40 54 -13 -31 c-7 -17 -16 -74 -19 -126 -4
-60 -12 -100 -20 -107 -15 -12 -40 1 -292 148 -141 82 -172 95 -172 71 0 -7
64 -87 141 -178 77 -91 156 -184 175 -207 l36 -42 -30 -38 c-17 -21 -56 -85
-87 -143 -62 -114 -95 -165 -164 -254 -45 -57 -46 -60 -46 -130 0 -68 2 -75
44 -138 38 -58 50 -69 93 -83 43 -14 54 -14 104 -1 31 8 90 37 134 66 98 64
142 78 266 81 l98 3 26 -89 c37 -130 67 -165 139 -165 40 0 137 52 198 105 33
29 61 45 77 45 32 0 93 24 117 46 16 15 19 13 33 -14 15 -29 61 -72 76 -72 4
0 3 19 -2 43 -6 25 -7 82 -2 142 15 207 2 397 -34 478 -11 25 -49 78 -84 118
-35 41 -83 102 -106 135 -51 76 -93 119 -141 143 -40 21 -133 41 -190 41 -33
1 -39 6 -76 66 -22 36 -48 72 -57 81 -16 14 -18 13 -29 -13z m-569 -114 c3 -3
18 -11 33 -18 32 -14 45 -38 29 -54 -13 -13 -52 16 -52 39 0 7 -6 13 -13 13
-7 0 -33 21 -57 46 l-45 47 50 -33 c28 -19 52 -36 55 -40z m450 5 c0 -5 -5 -3
-10 5 -5 8 -10 20 -10 25 0 6 5 3 10 -5 5 -8 10 -19 10 -25z m14 -30 c3 -8 1
-15 -4 -15 -6 0 -10 7 -10 15 0 8 2 15 4 15 2 0 6 -7 10 -15z m-340 -58 c26
-21 27 -26 16 -46 l-12 -24 -30 31 c-20 19 -29 36 -25 46 8 21 17 20 51 -7z
m79 -59 c18 -12 33 -22 35 -23 5 -4 -21 -55 -28 -55 -3 0 -19 13 -34 29 -20
21 -26 35 -21 50 8 26 10 26 48 -1z m91 -69 c29 -23 32 -36 12 -62 -13 -16
-16 -15 -45 12 -27 26 -31 33 -21 51 13 25 21 25 54 -1z m328 -57 c11 -9 27
-12 41 -8 19 4 24 2 23 -12 0 -11 7 -18 21 -20 17 -3 25 -14 34 -45 6 -23 22
-62 36 -86 17 -30 22 -46 15 -49 -7 -2 -12 -12 -12 -23 0 -23 -18 -55 -45 -83
-12 -12 -41 -48 -66 -81 -61 -81 -111 -107 -239 -121 -25 -3 -60 -10 -78 -16
-18 -5 -69 -11 -112 -12 -75 -1 -81 0 -98 24 -35 47 -64 113 -64 146 0 62 117
216 243 320 l26 21 31 -29 c43 -37 54 -36 47 6 -10 48 21 55 110 23 68 -25
108 13 60 56 -23 21 1 11 27 -11z m-292 -22 c0 -5 -5 -10 -11 -10 -5 0 -7 5
-4 10 3 6 8 10 11 10 2 0 4 -4 4 -10z m700 -571 c0 -61 -62 -116 -122 -107
-19 2 -23 9 -22 38 0 20 13 54 27 78 15 23 27 48 27 56 0 8 9 21 20 29 13 9
18 21 15 33 -4 10 7 -6 24 -36 17 -31 30 -71 31 -91z"/>
<path d="M739 951 c-17 -18 -29 -40 -29 -56 0 -30 49 -85 75 -85 24 0 72 27
79 45 17 46 4 91 -35 110 -40 21 -57 19 -90 -14z"/>
</g>
</svg>
